# xmcd
#
# Track frame offsets:
#	150
#	13977
#	30366
#	43320
#	57476
#	74998
#	90029
#	104869
#	121272
#	133478
#	148832
#	161186
#	177524
#	191913
#	207898
#	224089
#
# Disc length: 3211 seconds
#
# Revision: 1
# Processed by: cddbd v1.5.2PL0 Copyright (c) Steve Scherf et al.
# Submitted via: audiograbber 1.83.01
#
DISCID=0f0c8910
DTITLE=Various Artist - Beaut Ute Anthems 2013 [Disc 1]
DYEAR=2013
DGENRE=Country
TTITLE0=Lee Kernaghan - Ute Me
TTITLE1=Florida Georgia Line - Get Your Shine On
TTITLE2=Baylou - Hoedown
TTITLE3=Boy In A Box - On My Mind
TTITLE4=McAlister Kemp - A Good Idea
TTITLE5=Miranda Lambert - Fastest Girl In Town
TTITLE6=Dean Brody - Dirt
TTITLE7=Steve Forde - Something Beautiful
TTITLE8=The Rumjacks - Wild Mountain Thyme
TTITLE9=Emerson Drive - She's My Kinda Crazy
TTITLE10=Jasmine Rae - Fixer Upper
TTITLE11=Kristy James - Overdrive
TTITLE12=Doug Bruce - 5 Star Honky Tonk
TTITLE13=Peter McWhirter - Get Away
TTITLE14=Adam Toms - Rich Man
TTITLE15=We The Ghosts - Holdin' On
EXTD=
EXTT0=
EXTT1=
EXTT2=
EXTT3=
EXTT4=
EXTT5=
EXTT6=
EXTT7=
EXTT8=
EXTT9=
EXTT10=
EXTT11=
EXTT12=
EXTT13=
EXTT14=
EXTT15=
PLAYORDER=
